<?xml version="1.0" encoding="UTF-8"?>
<svg xmlns="http://www.w3.org/2000/svg" xmlns:xlink="http://www.w3.org/1999/xlink" width="63pt" height="63.36pt" viewBox="0 0 63 63.36" version="1.1">
<defs>
<clipPath id="clip1">
  <path d="M 0 0 L 63 0 L 63 63.359375 L 0 63.359375 Z M 0 0 "/>
</clipPath>
</defs>
<g id="surface1">
<path style=" stroke:none;fill-rule:nonzero;fill:rgb(100%,100%,100%);fill-opacity:1;" d="M 11.921875 51.460938 L 11.921875 62.503906 L 22.328125 56.636719 C 25.3125 57.484375 28.398438 57.914063 31.503906 57.910156 C 48.625 57.910156 62.5 45.054688 62.5 29.207031 C 62.5 13.359375 48.621094 0.503906 31.496094 0.503906 C 14.375 0.503906 0.5 13.351563 0.5 29.207031 C 0.5 38.183594 4.949219 46.199219 11.917969 51.460938 "/>
<g clip-path="url(#clip1)" clip-rule="nonzero">
<path style="fill:none;stroke-width:10;stroke-linecap:butt;stroke-linejoin:miter;stroke:rgb(2.352905%,50.193787%,97.65625%);stroke-opacity:1;stroke-miterlimit:10;" d="M 119.21875 118.990625 L 119.21875 8.560938 L 223.28125 67.232813 C 253.125 58.75625 283.984375 54.459375 315.039063 54.498438 C 486.25 54.498438 625 183.053125 625 341.529688 C 625 500.00625 486.210938 628.560938 314.960938 628.560938 C 143.75 628.560938 5 500.084375 5 341.529688 C 5 251.764063 49.492188 171.607813 119.179688 118.990625 Z M 119.21875 118.990625 " transform="matrix(0.1,0,0,-0.1,0,63.36)"/>
</g>
<path style=" stroke:none;fill-rule:nonzero;fill:rgb(2.352905%,50.193787%,97.65625%);fill-opacity:1;" d="M 28.1875 21.347656 L 11.472656 38.914063 L 26.683594 30.628906 L 34.636719 38.914063 L 51.253906 21.347656 L 36.214844 29.484375 "/>
</g>
</svg>
